
<svg width="197px" height="140px" viewBox="0 0 197 140" version="1.1" xmlns="http://www.w3.org/2000/svg" xmlns:xlink="http://www.w3.org/1999/xlink">
  <g id="Page-1" stroke="none" stroke-width="1" fill="none" fill-rule="evenodd">
    <g id="00_coming-soon" transform="translate(-82.000000, -159.000000)">
      <g id="Group-3" transform="translate(81.000000, 160.000000)">
        <g id="logo_bareule_m-copy-3">
          <g id="owl_outlines-copy-6" transform="translate(54.600000, 0.000000)">
            <path d="M24.254439,45.9250567 C24.3895237,45.9382642 24.5245172,45.9490802 24.6593642,45.9575302 C25.9547044,50.2351497 28.6176036,53.9084679 32.1325541,56.4562246 C31.458579,57.1142226 30.8021968,57.4212029 30.192719,57.3125363 C29.9442743,57.26824 29.7118673,57.1563469 29.4958828,56.9816573 C28.5892356,58.1532126 27.6966399,58.7425954 26.886847,58.5982137 C24.7907516,58.2244913 23.8362244,53.0391757 24.254439,45.9250567 Z" id="Combined-Shape" stroke="#FFDB20" stroke-width="2.5" stroke-linejoin="round"></path>
            <path d="M51.9864178,58.3862238 C51.5526598,57.9841992 50.9772704,57.7393075 50.3459955,57.7393075 C49.7112363,57.7393075 49.1329812,57.98691 48.6984038,58.3928951 C48.5203308,58.3330958 48.3300982,58.3007509 48.1324844,58.3007509 C47.1709873,58.3007509 46.3842304,59.066465 46.3226007,60.0345852 C45.4593114,60.1498467 44.5786256,60.2093266 43.6842007,60.2093266 C43.0292071,60.2093266 42.3815814,60.1774291 41.7427599,60.1150865 C41.6587353,59.1696861 40.8821357,58.4290605 39.9365215,58.4290605 C39.7389076,58.4290605 39.548675,58.4614054 39.3706021,58.5212046 C38.9360246,58.1152196 38.3577696,57.8676171 37.7230103,57.8676171 C37.028058,57.8676171 36.4008345,58.1644054 35.9557384,58.6408977 C30.535371,56.3374525 26.3323183,51.6842594 24.5935071,45.9421595 C25.3598462,45.9901807 26.1214554,45.9617851 26.8681981,45.8616313 C27.8346292,45.9969411 28.8217218,46.0668751 29.8249682,46.0668751 C41.6223332,46.0668751 51.1859872,36.3965031 51.1859872,24.4674947 C51.1859872,23.3623119 51.1038984,22.2765158 50.94555,21.2160005 C52.4320635,21.8032265 53.8319019,22.5654311 55.1202974,23.4775744 C53.1588806,24.7212336 52.7797928,30.7026518 54.3303228,37.4936779 C55.1827127,41.2269836 56.4531681,44.4818831 57.8068957,46.6973779 C58.229706,49.1304335 58.6381994,51.2251116 59.1241893,52.8195205 C57.206283,55.1829978 54.7680208,57.0982291 51.9864178,58.3862238 Z" id="Combined-Shape" stroke="#FFDB20" stroke-width="2.5"></path>
            <path d="M29.3171768,2.95513621 C25.9634302,3.97034532 23.1225335,6.47916594 21.8407809,10.0007524 C20.0963759,14.7934658 22.4525033,21.0607177 23.711997,21.7848212 C22.2772408,21.6380597 16.1053372,25.7587545 14.3609321,30.5514679 C13.1371195,33.9138656 13.5956097,37.4826346 15.3077818,40.3517532 C14.4414942,39.5341327 13.6425422,38.6444974 12.9202553,37.6922809 L0.0531043954,30.491092 L8.5502513,25.7356058 C8.52956154,25.3459782 8.51908376,24.9536073 8.51908376,24.5587619 C8.51908376,18.1495305 11.2798337,12.3923019 15.6644778,8.43661808 L12.8103914,0.595080237 L27.8792509,3.04484148 C28.3541951,2.99904095 28.8336754,2.9689656 29.3171768,2.95513621 Z M41.5049013,6.43490213 C41.555097,6.46788811 41.605147,6.50108153 41.6550502,6.53448116 C41.6227241,6.49675096 41.5901435,6.45921204 41.5573098,6.42186731 C47.4177799,10.2730683 51.2935302,16.9517321 51.2935302,24.5457271 C51.2935302,34.6998675 44.3640366,43.217478 35.0258678,45.5272937 C33.3777433,45.9394579 31.6541795,46.1581423 29.8801027,46.1581423 C28.8768564,46.1581423 27.8897637,46.0882083 26.9233326,45.9528985 C31.0479606,45.3996994 34.7190219,42.6572296 36.2282946,38.510537 C37.9726996,33.7178236 36.2991291,28.5058203 32.4488642,25.4983582 C37.3314972,25.6694109 41.9637382,22.7525351 43.7081433,17.9598214 C45.1918623,13.8833369 44.2028461,9.50351711 41.5049013,6.43490213 Z" id="Combined-Shape" stroke="#FFDB20" stroke-width="2.5" stroke-linecap="round" stroke-linejoin="round"></path>
            <g id="Path-3-Copy" transform="translate(8.518729, 2.959382)"></g>
            <path d="M38.0735518,24.2156764 L41.8030419,28.55968 C42.0325231,28.8269732 42.0018705,29.2296885 41.7345773,29.4591697 C41.6459103,29.5352937 41.5380349,29.5855968 41.4227265,29.6045881 L36.1850066,30.4672426 C37.1308536,32.9512519 37.2245241,35.7632737 36.2487801,38.4441083 C34.0751983,44.4159754 27.4179862,47.4754319 21.3794808,45.2775956 C15.3409755,43.0797594 12.2078359,36.4569064 14.3814177,30.4850393 C16.1258227,25.6923259 22.2977263,21.571631 23.7324826,21.7183926 C22.4729889,20.994289 20.1168615,14.7270372 21.8612665,9.93432377 C24.0348483,3.96245671 30.6920604,0.903000224 36.7305658,3.10083645 C42.7690712,5.29867267 45.9022107,11.9215257 43.7286289,17.8933928 C42.6866338,20.7562509 40.6142308,22.9497918 38.0735518,24.2156764 Z" id="Combined-Shape" stroke="#FFDB20" stroke-width="2.5" stroke-linecap="round" stroke-linejoin="round"></path>
            <ellipse id="Oval-Copy-20" stroke="#FFDB20" stroke-width="2.5" transform="translate(33.037700, 14.546650) rotate(-70.000000) translate(-33.037700, -14.546650) " cx="33.0377002" cy="14.5466504" rx="2.73370183" ry="2.76420642"></ellipse>
            <ellipse id="Oval-Copy-22" stroke="#FFDB20" stroke-width="2.5" transform="translate(25.683168, 35.371660) rotate(-70.000000) translate(-25.683168, -35.371660) " cx="25.6831676" cy="35.37166" rx="2.73370183" ry="2.76420642"></ellipse>
            <path d="M57.8450574,46.7621054 C56.4912968,44.5451405 55.2190308,41.3000783 54.3605778,37.5817098 C52.6754395,30.2825738 53.2229934,23.9236591 55.5835736,23.3786762 C55.720295,23.3471116 55.8600997,23.3357424 56.0024992,23.3437534 C56.0658876,23.3246281 56.1302551,23.309269 56.1955925,23.2977482 C59.0399585,22.7962098 62.6451866,29.7589745 64.2480948,38.8495185 C65.8510029,47.9400625 64.8446025,55.7159817 62.0002365,56.2175202 C59.8317039,56.599891 58.883527,52.6765084 57.8450579,46.7621085 Z" id="Combined-Shape" stroke="#FFDB20" stroke-width="2.5"></path>
            <path d="M59.5205584,36.5671804 C59.1255637,37.4766935 58.7550851,39.0773866 58.4091227,41.3692597 C57.4459366,47.7500112 58.4216317,50.2878343 59.0790039,52.6840017" id="Oval-Copy-32" stroke="#FFDB20" stroke-width="2.5" stroke-linecap="round"></path>
            <g id="Group-Copy-6" transform="translate(38.298713, 60.452104) rotate(-5.000000) translate(-38.298713, -60.452104) translate(35.633800, 58.399151)"></g>
            <path d="M39.5002258,62.0877021 C39.0545527,62.5704517 38.4231536,62.8716904 37.7230103,62.8716904 C36.3728686,62.8716904 35.2783626,61.7514905 35.2783626,60.3696538 C35.2783626,58.9878171 36.3728686,57.8676171 37.7230103,57.8676171 C38.3577696,57.8676171 38.9360246,58.1152196 39.3706021,58.5212046 C39.548675,58.4614054 39.7389076,58.4290605 39.9365215,58.4290605 C40.9382395,58.4290605 41.7502924,59.2601766 41.7502924,60.2854103 C41.7502924,61.310644 40.9382395,62.1417601 39.9365215,62.1417601 C39.7861111,62.1417601 39.6399769,62.1230219 39.5002258,62.0877021 Z" id="Combined-Shape" stroke="#FFDB20" stroke-width="2.5"></path>
            <path d="M50.5405767,61.9593925 C50.0949036,62.4421421 49.4635045,62.7433809 48.7633612,62.7433809 C47.4132195,62.7433809 46.3187135,61.6231809 46.3187135,60.2413442 C46.3187135,58.8595075 47.4132195,57.7393075 48.7633612,57.7393075 C49.3981204,57.7393075 49.9763755,57.98691 50.4109529,58.3928951 C50.5890259,58.3330958 50.7792585,58.3007509 50.9768724,58.3007509 C51.9785904,58.3007509 52.7906433,59.131867 52.7906433,60.1571007 C52.7906433,61.1823344 51.9785904,62.0134505 50.9768724,62.0134505 C50.826462,62.0134505 50.6803278,61.9947124 50.5405767,61.9593925 Z" id="Combined-Shape" stroke="#FFDB20" stroke-width="2.5" transform="translate(49.554678, 60.241344) scale(-1, 1) translate(-49.554678, -60.241344) "></path>
          </g>
          <path d="M1.80971229,105.704225 C1.58978934,105.704225 1.39985872,105.625353 1.23991475,105.467606 C1.07997078,105.309858 1,105.122536 1,104.905634 L1,85.7985915 C1,85.5816891 1.07997078,85.394367 1.23991475,85.2366197 C1.39985872,85.0788725 1.58978934,85 1.80971229,85 L11.4662811,85 C12.8058119,85 13.9353992,85.1823925 14.855077,85.5471831 C15.7747548,85.9119737 16.5094864,86.3852084 17.0592938,86.9669014 C17.6091012,87.5485945 18.003957,88.2091512 18.2438729,88.9485915 C18.4837889,89.6880319 18.6037451,90.4225316 18.6037451,91.1521127 C18.6037451,91.7239465 18.5387688,92.2218289 18.4088143,92.6457746 C18.2788598,93.0697204 18.1239164,93.4345055 17.9439795,93.7401408 C17.7640425,94.0457762 17.5791101,94.2922526 17.3891766,94.4795775 C17.1992432,94.6669023 17.0442998,94.8098587 16.9243418,94.9084507 C17.7040686,95.4408477 18.2488696,96.0570388 18.558761,96.7570423 C18.8686525,97.4570458 19.0235959,98.2999951 19.0235959,99.2859155 C19.0235959,100.09437 18.9036397,100.883095 18.6637237,101.652113 C18.4238078,102.421131 18.028952,103.106335 17.4791446,103.707746 C16.9293373,104.309158 16.2145984,104.792252 15.3349065,105.157042 C14.4552147,105.521833 13.3756091,105.704225 12.0960574,105.704225 L1.80971229,105.704225 Z M13.025727,91.2704225 C13.025727,90.7577439 12.8707836,90.3485931 12.5608922,90.0429577 C12.2510008,89.7373224 11.7961669,89.584507 11.196377,89.584507 L6.54802868,89.584507 L6.54802868,92.956338 L11.196377,92.956338 C11.7961669,92.956338 12.2510008,92.8035227 12.5608922,92.4978873 C12.8707836,92.192252 13.025727,91.7831012 13.025727,91.2704225 Z M6.54802868,101.119718 L11.4962705,101.119718 C12.0960604,101.119718 12.5758851,100.947185 12.935759,100.602113 C13.2956329,100.257041 13.4755672,99.8281716 13.4755672,99.315493 C13.4755672,98.8028143 13.2956329,98.3739454 12.935759,98.0288732 C12.5758851,97.6838011 12.0960604,97.5112676 11.4962705,97.5112676 L6.54802868,97.5112676 L6.54802868,101.119718 Z M42.7751561,85 C43.1750161,85 43.4799047,85.1084496 43.6898311,85.3253521 C43.8997576,85.5422546 44.0447046,85.7591538 44.1246766,85.9760563 L50.6623537,104.609859 C50.7423256,104.807043 50.782311,104.954929 50.782311,105.053521 C50.782311,105.230987 50.7173348,105.383802 50.5873803,105.511972 C50.4574258,105.640141 50.3024824,105.704225 50.1225455,105.704225 L46.3438881,105.704225 C45.9440282,105.704225 45.6591323,105.620423 45.4891918,105.452817 C45.3192513,105.28521 45.2142897,105.122536 45.1743037,104.964789 L44.334602,102.509859 L36.3574365,102.509859 L35.5177348,104.964789 C35.4777488,105.122536 35.3727872,105.28521 35.2028467,105.452817 C35.0329063,105.620423 34.7480103,105.704225 34.3481504,105.704225 L30.569493,105.704225 C30.3895561,105.704225 30.2346127,105.640141 30.1046582,105.511972 C29.9747037,105.383802 29.9097275,105.230987 29.9097275,105.053521 C29.9097275,104.954929 29.9497129,104.807043 30.0296848,104.609859 L36.5673619,85.9760563 C36.6473339,85.7591538 36.7922809,85.5422546 37.0022074,85.3253521 C37.2121338,85.1084496 37.5170224,85 37.9168824,85 L42.7751561,85 Z M37.9168824,97.9253521 L42.7751561,97.9253521 L40.3460193,90.8267606 L37.9168824,97.9253521 Z M71.894809,85 C73.2143468,85 74.3939158,85.1380268 75.4335516,85.4140845 C76.4731874,85.6901422 77.3578642,86.1042226 78.0876086,86.656338 C78.8173529,87.2084535 79.3771484,87.913376 79.7670119,88.7711268 C80.1568753,89.6288775 80.3518041,90.6295717 80.3518041,91.7732394 C80.3518041,93.2521201 80.0419173,94.4795726 79.4221344,95.4556338 C78.8023515,96.431695 77.9226729,97.1760538 76.7830721,97.6887324 L80.5017508,104.728169 C80.5617298,104.846479 80.5917188,104.954929 80.5917188,105.053521 C80.5917188,105.230987 80.5267426,105.383802 80.3967881,105.511972 C80.2668336,105.640141 80.1118902,105.704225 79.9319533,105.704225 L75.8534024,105.704225 C75.4535425,105.704225 75.1686466,105.615494 74.9987061,105.438028 C74.8287657,105.260562 74.693815,105.083099 74.59385,104.905634 L71.2650328,98.5760563 L68.5060131,98.5760563 L68.5060131,104.905634 C68.5060131,105.122536 68.4260423,105.309858 68.2660984,105.467606 C68.1061544,105.625353 67.9162238,105.704225 67.6963008,105.704225 L63.7676967,105.704225 C63.5477738,105.704225 63.3578432,105.625353 63.1978992,105.467606 C63.0379552,105.309858 62.9579844,105.122536 62.9579844,104.905634 L62.9579844,85.7985915 C62.9579844,85.5816891 63.0379552,85.394367 63.1978992,85.2366197 C63.3578432,85.0788725 63.5477738,85 63.7676967,85 L71.894809,85 Z M68.5060131,93.9619718 L71.894809,93.9619718 C72.7345148,93.9619718 73.429261,93.8042269 73.9790684,93.4887324 C74.5288758,93.1732379 74.8037754,92.6014126 74.8037754,91.7732394 C74.8037754,90.9450663 74.5288758,90.373241 73.9790684,90.0577465 C73.429261,89.7422519 72.7345148,89.584507 71.894809,89.584507 L68.5060131,89.584507 L68.5060131,93.9619718 Z M108.571777,100.971831 C108.7917,100.971831 108.98163,101.050703 109.141574,101.208451 C109.301518,101.366198 109.381489,101.55352 109.381489,101.770423 L109.381489,104.905634 C109.381489,105.122536 109.301518,105.309858 109.141574,105.467606 C108.98163,105.625353 108.7917,105.704225 108.571777,105.704225 L94.3568275,105.704225 C94.1369045,105.704225 93.9469739,105.625353 93.7870299,105.467606 C93.627086,105.309858 93.5471152,105.122536 93.5471152,104.905634 L93.5471152,85.7985915 C93.5471152,85.5816891 93.627086,85.394367 93.7870299,85.2366197 C93.9469739,85.0788725 94.1369045,85 94.3568275,85 L108.331862,85 C108.551785,85 108.741715,85.0788725 108.901659,85.2366197 C109.061603,85.394367 109.141574,85.5816891 109.141574,85.7985915 L109.141574,88.9338028 C109.141574,89.1507053 109.061603,89.3380274 108.901659,89.4957746 C108.741715,89.6535219 108.551785,89.7323944 108.331862,89.7323944 L99.0951439,89.7323944 L99.0951439,92.9267606 L107.672096,92.9267606 C107.892019,92.9267606 108.08195,93.005633 108.241894,93.1633803 C108.401838,93.3211275 108.481809,93.5084496 108.481809,93.7253521 L108.481809,96.8605634 C108.481809,97.0774659 108.401838,97.2647879 108.241894,97.4225352 C108.08195,97.5802825 107.892019,97.6591549 107.672096,97.6591549 L99.0951439,97.6591549 L99.0951439,100.971831 L108.571777,100.971831 Z M139.790684,85 C140.010607,85 140.200537,85.0788725 140.360481,85.2366197 C140.520425,85.394367 140.600396,85.5816891 140.600396,85.7985915 L140.600396,97.6 C140.600396,98.9605702 140.380476,100.163375 139.94063,101.208451 C139.500784,102.253526 138.876013,103.130982 138.066296,103.840845 C137.25658,104.550708 136.291932,105.088026 135.172325,105.452817 C134.052717,105.817607 132.823166,106 131.483635,106 C130.124112,106 128.884564,105.817607 127.764957,105.452817 C126.645349,105.088026 125.685699,104.550708 124.88598,103.840845 C124.08626,103.130982 123.466486,102.253526 123.02664,101.208451 C122.586794,100.163375 122.366875,98.9605702 122.366875,97.6 L122.366875,85.7985915 C122.366875,85.5816891 122.446845,85.394367 122.606789,85.2366197 C122.766733,85.0788725 122.956664,85 123.176587,85 L127.105191,85 C127.325114,85 127.515045,85.0788725 127.674989,85.2366197 C127.834933,85.394367 127.914903,85.5816891 127.914903,85.7985915 L127.914903,97.4816901 C127.914903,98.6647946 128.209796,99.5915459 128.799589,100.261972 C129.389382,100.932398 130.284055,101.267606 131.483635,101.267606 C132.683215,101.267606 133.577888,100.932398 134.167682,100.261972 C134.757475,99.5915459 135.052367,98.6647946 135.052367,97.4816901 L135.052367,85.7985915 C135.052367,85.5816891 135.132338,85.394367 135.292282,85.2366197 C135.452226,85.0788725 135.642157,85 135.86208,85 L139.790684,85 Z M169.030294,100.971831 C169.250217,100.971831 169.440147,101.050703 169.600091,101.208451 C169.760035,101.366198 169.840006,101.55352 169.840006,101.770423 L169.840006,104.905634 C169.840006,105.122536 169.760035,105.309858 169.600091,105.467606 C169.440147,105.625353 169.250217,105.704225 169.030294,105.704225 L155.145227,105.704225 C154.925305,105.704225 154.735374,105.625353 154.57543,105.467606 C154.415486,105.309858 154.335515,105.122536 154.335515,104.905634 L154.335515,85.7985915 C154.335515,85.5816891 154.415486,85.394367 154.57543,85.2366197 C154.735374,85.0788725 154.925305,85 155.145227,85 L159.073832,85 C159.293755,85 159.483685,85.0788725 159.643629,85.2366197 C159.803573,85.394367 159.883544,85.5816891 159.883544,85.7985915 L159.883544,100.971831 L169.030294,100.971831 Z M197.190288,100.971831 C197.410211,100.971831 197.600141,101.050703 197.760085,101.208451 C197.920029,101.366198 198,101.55352 198,101.770423 L198,104.905634 C198,105.122536 197.920029,105.309858 197.760085,105.467606 C197.600141,105.625353 197.410211,105.704225 197.190288,105.704225 L182.975339,105.704225 C182.755416,105.704225 182.565485,105.625353 182.405541,105.467606 C182.245597,105.309858 182.165626,105.122536 182.165626,104.905634 L182.165626,85.7985915 C182.165626,85.5816891 182.245597,85.394367 182.405541,85.2366197 C182.565485,85.0788725 182.755416,85 182.975339,85 L196.950373,85 C197.170296,85 197.360227,85.0788725 197.52017,85.2366197 C197.680114,85.394367 197.760085,85.5816891 197.760085,85.7985915 L197.760085,88.9338028 C197.760085,89.1507053 197.680114,89.3380274 197.52017,89.4957746 C197.360227,89.6535219 197.170296,89.7323944 196.950373,89.7323944 L187.713655,89.7323944 L187.713655,92.9267606 L196.290607,92.9267606 C196.51053,92.9267606 196.700461,93.005633 196.860405,93.1633803 C197.020349,93.3211275 197.10032,93.5084496 197.10032,93.7253521 L197.10032,96.8605634 C197.10032,97.0774659 197.020349,97.2647879 196.860405,97.4225352 C196.700461,97.5802825 196.51053,97.6591549 196.290607,97.6591549 L187.713655,97.6591549 L187.713655,100.971831 L197.190288,100.971831 Z" id="BAREULE-Copy-7" fill="#FFFFFF"></path>
        </g>
        <g id="muc-copy" transform="translate(28.000000, 119.000000)">
          <rect id="Rectangle-7" stroke="#979797" stroke-width="0.5" fill="#FFDB20" x="0.25" y="0.25" width="142.5" height="19.5" rx="0.50625"></rect>
          <path d="M15.6216067,12.2210526 C15.5079135,12.2210526 15.4188552,12.1875003 15.3544291,12.1203947 C15.290003,12.0532891 15.2388418,11.9881582 15.2009441,11.925 L14.1322339,9.97105263 L14.1322339,13.8907895 C14.1322339,13.977632 14.1019162,14.0526313 14.0412798,14.1157895 C13.9806435,14.1789477 13.9086389,14.2105263 13.8252639,14.2105263 L12.3358911,14.2105263 C12.2525161,14.2105263 12.1805116,14.1789477 12.1198752,14.1157895 C12.0592389,14.0526313 12.0289212,13.977632 12.0289212,13.8907895 L12.0289212,6.24078947 C12.0289212,6.15394693 12.0592389,6.07894768 12.1198752,6.01578947 C12.1805116,5.95263126 12.2525161,5.92105263 12.3358911,5.92105263 L13.654725,5.92105263 C13.8063159,5.92105263 13.9200074,5.96447325 13.9958028,6.05131579 C14.0715982,6.13815833 14.1208645,6.20131559 14.1436031,6.24078947 L15.9854229,9.52105263 L17.8272427,6.24078947 C17.8499813,6.20131559 17.8992476,6.13815833 17.9750431,6.05131579 C18.0508385,5.96447325 18.1645299,5.92105263 18.3161208,5.92105263 L19.6349547,5.92105263 C19.7183297,5.92105263 19.7903343,5.95263126 19.8509706,6.01578947 C19.911607,6.07894768 19.9419247,6.15394693 19.9419247,6.24078947 L19.9419247,13.8907895 C19.9419247,13.977632 19.911607,14.0526313 19.8509706,14.1157895 C19.7903343,14.1789477 19.7183297,14.2105263 19.6349547,14.2105263 L18.1455819,14.2105263 C18.062207,14.2105263 17.9902024,14.1789477 17.929566,14.1157895 C17.8689297,14.0526313 17.838612,13.977632 17.838612,13.8907895 L17.838612,9.97105263 L16.7699017,11.925 C16.732004,11.9881582 16.6808429,12.0532891 16.6164167,12.1203947 C16.5519906,12.1875003 16.4629323,12.2210526 16.3492392,12.2210526 L15.6216067,12.2210526 Z M38.5738649,5.92105263 C38.6572399,5.92105263 38.7292445,5.95263126 38.7898808,6.01578947 C38.8505172,6.07894768 38.8808349,6.15394693 38.8808349,6.24078947 L38.8808349,10.9657895 C38.8808349,11.510529 38.7974611,11.9921032 38.6307112,12.4105263 C38.4639612,12.8289495 38.2271041,13.1802617 37.9201326,13.4644737 C37.6131611,13.7486856 37.2474536,13.9638151 36.8229992,14.1098684 C36.3985448,14.2559218 35.9324098,14.3289474 35.4245805,14.3289474 C34.9091715,14.3289474 34.4392469,14.2559218 34.0147925,14.1098684 C33.590338,13.9638151 33.2265254,13.7486856 32.9233437,13.4644737 C32.620162,13.1802617 32.3851997,12.8289495 32.2184497,12.4105263 C32.0516998,11.9921032 31.968326,11.510529 31.968326,10.9657895 L31.968326,6.24078947 C31.968326,6.15394693 31.9986438,6.07894768 32.0592801,6.01578947 C32.1199164,5.95263126 32.191921,5.92105263 32.275296,5.92105263 L33.7646688,5.92105263 C33.8480438,5.92105263 33.9200483,5.95263126 33.9806847,6.01578947 C34.041321,6.07894768 34.0716388,6.15394693 34.0716388,6.24078947 L34.0716388,10.9184211 C34.0716388,11.3921076 34.1834353,11.7631566 34.4070319,12.0315789 C34.6306284,12.3000013 34.9698079,12.4342105 35.4245805,12.4342105 C35.879353,12.4342105 36.2185325,12.3000013 36.442129,12.0315789 C36.6657256,11.7631566 36.7775222,11.3921076 36.7775222,10.9184211 L36.7775222,6.24078947 C36.7775222,6.15394693 36.8078399,6.07894768 36.8684762,6.01578947 C36.9291126,5.95263126 37.0011171,5.92105263 37.0844921,5.92105263 L38.5738649,5.92105263 Z M34.8561176,5.00921053 C34.8561176,5.09605307 34.8257998,5.17105232 34.7651635,5.23421053 C34.7045271,5.29736874 34.6325226,5.32894737 34.5491476,5.32894737 L33.4008525,5.32894737 C33.3174776,5.32894737 33.245473,5.29736874 33.1848366,5.23421053 C33.1242003,5.17105232 33.0938826,5.09605307 33.0938826,5.00921053 L33.0938826,3.81315789 C33.0938826,3.72631536 33.1242003,3.65131611 33.1848366,3.58815789 C33.245473,3.52499968 33.3174776,3.49342105 33.4008525,3.49342105 L34.5491476,3.49342105 C34.6325226,3.49342105 34.7045271,3.52499968 34.7651635,3.58815789 C34.8257998,3.65131611 34.8561176,3.72631536 34.8561176,3.81315789 L34.8561176,5.00921053 Z M37.7552783,5.00921053 C37.7552783,5.09605307 37.7249606,5.17105232 37.6643243,5.23421053 C37.6036879,5.29736874 37.5316833,5.32894737 37.4483084,5.32894737 L36.3000133,5.32894737 C36.2166383,5.32894737 36.1446338,5.29736874 36.0839974,5.23421053 C36.0233611,5.17105232 35.9930434,5.09605307 35.9930434,5.00921053 L35.9930434,3.81315789 C35.9930434,3.72631536 36.0233611,3.65131611 36.0839974,3.58815789 C36.1446338,3.52499968 36.2166383,3.49342105 36.3000133,3.49342105 L37.4483084,3.49342105 C37.5316833,3.49342105 37.6036879,3.52499968 37.6643243,3.58815789 C37.7249606,3.65131611 37.7552783,3.72631536 37.7552783,3.81315789 L37.7552783,5.00921053 Z M56.0802486,14.2105263 C55.9513963,14.2105263 55.8471792,14.1750004 55.767594,14.1039474 C55.6880088,14.0328944 55.6368476,13.9776318 55.614109,13.9381579 L53.0105489,9.88815789 L53.0105489,13.8907895 C53.0105489,13.977632 52.9802312,14.0526313 52.9195949,14.1157895 C52.8589585,14.1789477 52.7869539,14.2105263 52.703579,14.2105263 L51.2142062,14.2105263 C51.1308312,14.2105263 51.0588266,14.1789477 50.9981903,14.1157895 C50.9375539,14.0526313 50.9072362,13.977632 50.9072362,13.8907895 L50.9072362,6.24078947 C50.9072362,6.15394693 50.9375539,6.07894768 50.9981903,6.01578947 C51.0588266,5.95263126 51.1308312,5.92105263 51.2142062,5.92105263 L52.396609,5.92105263 C52.5254612,5.92105263 52.6296784,5.95657859 52.7092636,6.02763158 C52.7888488,6.09868457 52.84001,6.15394717 52.8627486,6.19342105 L55.4663087,10.2434211 L55.4663087,6.24078947 C55.4663087,6.15394693 55.4966264,6.07894768 55.5572627,6.01578947 C55.6178991,5.95263126 55.6899036,5.92105263 55.7732786,5.92105263 L57.2626514,5.92105263 C57.3460264,5.92105263 57.418031,5.95263126 57.4786673,6.01578947 C57.5393037,6.07894768 57.5696214,6.15394693 57.5696214,6.24078947 L57.5696214,13.8907895 C57.5696214,13.977632 57.5393037,14.0526313 57.4786673,14.1157895 C57.418031,14.1789477 57.3460264,14.2105263 57.2626514,14.2105263 L56.0802486,14.2105263 Z M71.5060581,9.07105263 C71.4984785,9.17368472 71.4927939,9.31578857 71.4890042,9.49736842 C71.4852144,9.67894828 71.4833195,9.8664464 71.4833195,10.0598684 C71.4833195,10.2532904 71.4852144,10.4427622 71.4890042,10.6282895 C71.4927939,10.8138167 71.4984785,10.9578942 71.5060581,11.0605263 C71.5212171,11.2421062 71.5553246,11.4157886 71.6083814,11.5815789 C71.6614382,11.7473693 71.7448119,11.8934204 71.8585051,12.0197368 C71.9721982,12.1460533 72.1162074,12.2467102 72.2905369,12.3217105 C72.4648663,12.3967109 72.6808801,12.4342105 72.9385846,12.4342105 C73.196289,12.4342105 73.4085131,12.4026319 73.575263,12.3394737 C73.742013,12.2763155 73.8784427,12.1993426 73.9845563,12.1085526 C74.0906699,12.0177627 74.1721488,11.9171058 74.2289953,11.8065789 C74.2858419,11.6960521 74.3294236,11.5934215 74.3597418,11.4986842 C74.3976395,11.3723678 74.4393264,11.2835529 74.4848036,11.2322368 C74.5302809,11.1809208 74.6174443,11.1552632 74.7462966,11.1552632 L76.2356694,11.1552632 C76.3038853,11.1552632 76.3626258,11.1809208 76.4118929,11.2322368 C76.4611599,11.2835529 76.485793,11.3447365 76.485793,11.4157895 C76.4782135,11.8184231 76.3834706,12.1973666 76.2015616,12.5526316 C76.0196526,12.9078965 75.7695314,13.2157882 75.4511906,13.4763158 C75.1328498,13.7368434 74.7595628,13.9440782 74.3313187,14.0980263 C73.9030745,14.2519745 73.4388344,14.3289474 72.9385846,14.3289474 C72.3928574,14.3289474 71.9058791,14.2440798 71.4776349,14.0743421 C71.0493907,13.9046044 70.6836832,13.6736857 70.3805015,13.3815789 C70.0773198,13.0894722 69.8442523,12.7480283 69.6812922,12.3572368 C69.518332,11.9664454 69.425484,11.5539495 69.4027453,11.1197368 C69.3875862,10.796051 69.3800068,10.4486861 69.3800068,10.0776316 C69.3800068,9.70657709 69.3875862,9.35131749 69.4027453,9.01184211 C69.4179044,8.57762941 69.5088576,8.16513353 69.6756075,7.77434211 C69.8423575,7.38355068 70.0754249,7.04210672 70.3748169,6.75 C70.6742088,6.45789328 71.0399163,6.22697453 71.4719503,6.05723684 C71.9039842,5.88749915 72.3928574,5.80263158 72.9385846,5.80263158 C73.4388344,5.80263158 73.9030745,5.87960449 74.3313187,6.03355263 C74.7595628,6.18750077 75.1328498,6.39473554 75.4511906,6.65526316 C75.7695314,6.91579078 76.0196526,7.22368243 76.2015616,7.57894737 C76.3834706,7.9342123 76.4782135,8.31315588 76.485793,8.71578947 C76.485793,8.78684246 76.4611599,8.84802606 76.4118929,8.89934211 C76.3626258,8.95065815 76.3038853,8.97631579 76.2356694,8.97631579 L74.7462966,8.97631579 C74.6174443,8.97631579 74.5302809,8.95065815 74.4848036,8.89934211 C74.4393264,8.84802606 74.3976395,8.75921116 74.3597418,8.63289474 C74.3294236,8.53815742 74.2858419,8.43552687 74.2289953,8.325 C74.1721488,8.21447313 74.0906699,8.11381624 73.9845563,8.02302632 C73.8784427,7.93223639 73.742013,7.85526347 73.575263,7.79210526 C73.4085131,7.72894705 73.196289,7.69736842 72.9385846,7.69736842 C72.6808801,7.69736842 72.4648663,7.73486805 72.2905369,7.80986842 C72.1162074,7.8848688 71.9721982,7.98552568 71.8585051,8.11184211 C71.7448119,8.23815853 71.6614382,8.3842097 71.6083814,8.55 C71.5553246,8.7157903 71.5212171,8.88947278 71.5060581,9.07105263 Z M94.5947474,5.92105263 C94.6781224,5.92105263 94.7501269,5.95263126 94.8107633,6.01578947 C94.8713996,6.07894768 94.9017174,6.15394693 94.9017174,6.24078947 L94.9017174,13.8907895 C94.9017174,13.977632 94.8713996,14.0526313 94.8107633,14.1157895 C94.7501269,14.1789477 94.6781224,14.2105263 94.5947474,14.2105263 L93.1053746,14.2105263 C93.0219996,14.2105263 92.949995,14.1789477 92.8893587,14.1157895 C92.8287223,14.0526313 92.7984046,13.977632 92.7984046,13.8907895 L92.7984046,10.9894737 L90.2744294,10.9894737 L90.2744294,13.8907895 C90.2744294,13.977632 90.2441116,14.0526313 90.1834753,14.1157895 C90.122839,14.1789477 90.0508344,14.2105263 89.9674594,14.2105263 L88.4780866,14.2105263 C88.3947116,14.2105263 88.3227071,14.1809213 88.2620707,14.1217105 C88.2014344,14.0624997 88.1711166,13.9855268 88.1711166,13.8907895 L88.1711166,6.24078947 C88.1711166,6.15394693 88.2014344,6.07894768 88.2620707,6.01578947 C88.3227071,5.95263126 88.3947116,5.92105263 88.4780866,5.92105263 L89.9674594,5.92105263 C90.0508344,5.92105263 90.122839,5.95263126 90.1834753,6.01578947 C90.2441116,6.07894768 90.2744294,6.15394693 90.2744294,6.24078947 L90.2744294,9.09473684 L92.7984046,9.09473684 L92.7984046,6.24078947 C92.7984046,6.15394693 92.8287223,6.07894768 92.8893587,6.01578947 C92.949995,5.95263126 93.0219996,5.92105263 93.1053746,5.92105263 L94.5947474,5.92105263 Z M112.703702,12.3157895 C112.787077,12.3157895 112.859081,12.3473681 112.919718,12.4105263 C112.980354,12.4736845 113.010672,12.5486838 113.010672,12.6355263 L113.010672,13.8907895 C113.010672,13.977632 112.980354,14.0526313 112.919718,14.1157895 C112.859081,14.1789477 112.787077,14.2105263 112.703702,14.2105263 L107.314673,14.2105263 C107.231298,14.2105263 107.159294,14.1789477 107.098658,14.1157895 C107.038021,14.0526313 107.007704,13.977632 107.007704,13.8907895 L107.007704,6.24078947 C107.007704,6.15394693 107.038021,6.07894768 107.098658,6.01578947 C107.159294,5.95263126 107.231298,5.92105263 107.314673,5.92105263 L112.612748,5.92105263 C112.696123,5.92105263 112.768127,5.95263126 112.828764,6.01578947 C112.8894,6.07894768 112.919718,6.15394693 112.919718,6.24078947 L112.919718,7.49605263 C112.919718,7.58289517 112.8894,7.65789442 112.828764,7.72105263 C112.768127,7.78421084 112.696123,7.81578947 112.612748,7.81578947 L109.111016,7.81578947 L109.111016,9.09473684 L112.362624,9.09473684 C112.445999,9.09473684 112.518004,9.12631547 112.57864,9.18947368 C112.639276,9.25263189 112.669594,9.32763114 112.669594,9.41447368 L112.669594,10.6697368 C112.669594,10.7565794 112.639276,10.8315786 112.57864,10.8947368 C112.518004,10.9578951 112.445999,10.9894737 112.362624,10.9894737 L109.111016,10.9894737 L109.111016,12.3157895 L112.703702,12.3157895 Z M130.005439,14.2105263 C129.876587,14.2105263 129.772369,14.1750004 129.692784,14.1039474 C129.613199,14.0328944 129.562038,13.9776318 129.539299,13.9381579 L126.935739,9.88815789 L126.935739,13.8907895 C126.935739,13.977632 126.905421,14.0526313 126.844785,14.1157895 C126.784149,14.1789477 126.712144,14.2105263 126.628769,14.2105263 L125.139396,14.2105263 C125.056021,14.2105263 124.984017,14.1789477 124.92338,14.1157895 C124.862744,14.0526313 124.832426,13.977632 124.832426,13.8907895 L124.832426,6.24078947 C124.832426,6.15394693 124.862744,6.07894768 124.92338,6.01578947 C124.984017,5.95263126 125.056021,5.92105263 125.139396,5.92105263 L126.321799,5.92105263 C126.450651,5.92105263 126.554869,5.95657859 126.634454,6.02763158 C126.714039,6.09868457 126.7652,6.15394717 126.787939,6.19342105 L129.391499,10.2434211 L129.391499,6.24078947 C129.391499,6.15394693 129.421817,6.07894768 129.482453,6.01578947 C129.543089,5.95263126 129.615094,5.92105263 129.698469,5.92105263 L131.187842,5.92105263 C131.271217,5.92105263 131.343221,5.95263126 131.403857,6.01578947 C131.464494,6.07894768 131.494812,6.15394693 131.494812,6.24078947 L131.494812,13.8907895 C131.494812,13.977632 131.464494,14.0526313 131.403857,14.1157895 C131.343221,14.1789477 131.271217,14.2105263 131.187842,14.2105263 L130.005439,14.2105263 Z" id="MÜNCHEN" fill="#222222"></path>
        </g>
      </g>
    </g>
  </g>
</svg>
